<svg width="28" height="28" viewBox="0 0 28 28" fill="none" xmlns="http://www.w3.org/2000/svg">
<path d="M6.19236 23.9165C5.61052 23.9165 5.11357 23.7105 4.7015 23.2984C4.28942 22.8863 4.08337 22.3894 4.08337 21.8076V8.52558C4.08337 7.94375 4.28942 7.44679 4.7015 7.03473C5.11357 6.62264 5.61052 6.4166 6.19236 6.4166H8.75004C8.75004 4.95978 9.26083 3.72059 10.2824 2.69902C11.304 1.67744 12.5432 1.16666 14 1.16666C15.4568 1.16666 16.696 1.67744 17.7176 2.69902C18.7392 3.72059 19.25 4.95978 19.25 6.4166H21.8077C22.3895 6.4166 22.8865 6.62264 23.2985 7.03473C23.7106 7.44679 23.9167 7.94375 23.9167 8.52558V21.8076C23.9167 22.3894 23.7106 22.8863 23.2985 23.2984C22.8865 23.7105 22.3895 23.9165 21.8077 23.9165H6.19236ZM6.19236 22.1666H21.8077C21.8974 22.1666 21.9797 22.1292 22.0545 22.0544C22.1293 21.9796 22.1667 21.8973 22.1667 21.8076V8.52558C22.1667 8.43583 22.1293 8.35355 22.0545 8.27875C21.9797 8.20396 21.8974 8.16657 21.8077 8.16657H6.19236C6.1026 8.16657 6.02032 8.20396 5.94552 8.27875C5.87074 8.35355 5.83334 8.43583 5.83334 8.52558V21.8076C5.83334 21.8973 5.87074 21.9796 5.94552 22.0544C6.02032 22.1292 6.1026 22.1666 6.19236 22.1666ZM10.5 6.4166H17.5C17.5 5.44438 17.1597 4.61799 16.4792 3.93743C15.7986 3.25688 14.9722 2.9166 14 2.9166C13.0278 2.9166 12.2014 3.25688 11.5208 3.93743C10.8403 4.61799 10.5 5.44438 10.5 6.4166ZM13.9821 14.5832C15.3013 14.5832 16.4863 14.1367 17.537 13.2438C18.5877 12.3508 19.1071 11.3375 19.0952 10.2037C19.0952 9.96291 19.0144 9.75764 18.8529 9.58789C18.6913 9.41812 18.4864 9.33324 18.2381 9.33324C18.0332 9.33324 17.85 9.40391 17.6885 9.54525C17.5269 9.68659 17.4125 9.88365 17.3452 10.1364C17.1762 10.9277 16.7731 11.5749 16.1359 12.0783C15.4987 12.5816 14.7808 12.8332 13.9821 12.8332C13.1833 12.8332 12.4624 12.5816 11.8192 12.0783C11.1761 11.5749 10.776 10.9277 10.6189 10.1364C10.5516 9.87169 10.4432 9.67164 10.2936 9.53627C10.144 9.40091 9.9668 9.33324 9.76189 9.33324C9.51361 9.33324 9.3057 9.41812 9.13819 9.58789C8.97068 9.75764 8.88692 9.96291 8.88692 10.2037C8.88692 11.3375 9.4063 12.3508 10.4451 13.2438C11.4838 14.1367 12.6628 14.5832 13.9821 14.5832Z" fill="white"/>
</svg>
